<svg width="48" height="48" viewBox="0 0 48 48" fill="none" xmlns="http://www.w3.org/2000/svg">
  <defs>
    <linearGradient id="phoneGradient" x1="0%" y1="0%" x2="100%" y2="100%">
      <stop offset="0%" style="stop-color:#10B981;stop-opacity:1" />
      <stop offset="100%" style="stop-color:#059669;stop-opacity:1" />
    </linearGradient>
  </defs>
  
  <!-- Background Circle -->
  <circle cx="24" cy="24" r="22" fill="url(#phoneGradient)" stroke="#E5E7EB" stroke-width="2"/>
  
  <!-- Phone Icon -->
  <path d="M16.5 12C15.1193 12 14 13.1193 14 14.5V33.5C14 34.8807 15.1193 36 16.5 36H31.5C32.8807 36 34 34.8807 34 33.5V14.5C34 13.1193 32.8807 12 31.5 12H16.5Z" fill="white"/>
  <rect x="16" y="15" width="16" height="16" rx="1" fill="url(#phoneGradient)"/>
  <circle cx="24" cy="33" r="1.5" fill="url(#phoneGradient)"/>
  
  <!-- Signal Waves -->
  <path d="M19 20L21 22L19 24" stroke="white" stroke-width="1.5" stroke-linecap="round" stroke-linejoin="round"/>
  <path d="M29 20L27 22L29 24" stroke="white" stroke-width="1.5" stroke-linecap="round" stroke-linejoin="round"/>
  
  <!-- Highlight Effect -->
  <circle cx="24" cy="24" r="22" fill="none" stroke="white" stroke-width="1" opacity="0.3"/>
</svg>