<svg width="60" height="60" viewBox="0 0 60 60" xmlns="http://www.w3.org/2000/svg">
  <!-- 外圆背景 -->
  <circle cx="30" cy="30" r="28" fill="#3498db" stroke="none"/>
  <!-- 内圆装饰 -->
  <circle cx="30" cy="30" r="22" fill="none" stroke="rgba(255,255,255,0.2)" stroke-width="1"/>
  <!-- 图表分析图标 -->
  <g transform="translate(30,30)">
    <!-- 坐标轴 -->
    <line x1="-10" y1="8" x2="10" y2="8" stroke="white" stroke-width="2"/>
    <line x1="-10" y1="8" x2="-10" y2="-8" stroke="white" stroke-width="2"/>
    <!-- 箭头 -->
    <path d="M 8,8 L 10,8 L 9,7 M 10,8 L 9,9" stroke="white" stroke-width="1.5" fill="none"/>
    <path d="M -10,-6 L -10,-8 L -11,-7 M -10,-8 L -9,-7" stroke="white" stroke-width="1.5" fill="none"/>
    <!-- 数据曲线 -->
    <path d="M -8,6 Q -4,2 0,4 Q 4,6 8,0" stroke="white" stroke-width="2" fill="none"/>
    <!-- 数据点 -->
    <circle cx="-8" cy="6" r="1.5" fill="white"/>
    <circle cx="-4" cy="2" r="1.5" fill="white"/>
    <circle cx="0" cy="4" r="1.5" fill="white"/>
    <circle cx="4" cy="6" r="1.5" fill="white"/>
    <circle cx="8" cy="0" r="1.5" fill="white"/>
    <!-- 趋势箭头 -->
    <path d="M 6,-2 L 8,0 L 6,2" stroke="white" stroke-width="1.5" fill="white"/>
  </g>
</svg>